<svg width="252" height="100" viewBox="0 0 252 100" fill="none" xmlns="http://www.w3.org/2000/svg">
<path d="M62.1959 73V32.5H77.8459V36.55H67.8459V50.05H75.5959V54.05H67.8459V73H62.1959ZM92.1771 73.45C89.2438 73.45 86.9938 72.8667 85.4271 71.7C83.8605 70.5333 82.7938 68.9 82.2271 66.8C81.6605 64.6667 81.3771 62.1833 81.3771 59.35V32.5H86.7771V59.6C86.7771 61.3333 86.8938 62.9167 87.1271 64.35C87.3605 65.7833 87.8605 66.9167 88.6271 67.75C89.4271 68.5833 90.6105 69 92.1771 69C93.7771 69 94.9605 68.5833 95.7271 67.75C96.4938 66.9167 96.9938 65.7833 97.2271 64.35C97.4605 62.9167 97.5771 61.3333 97.5771 59.6V32.5H102.927V59.35C102.927 62.1833 102.644 64.6667 102.077 66.8C101.51 68.9 100.444 70.5333 98.8771 71.7C97.3438 72.8667 95.1105 73.45 92.1771 73.45ZM108.876 73V32.5H112.726L124.226 59.4V32.5H128.926V73H125.326L113.676 45.35V73H108.876ZM139.742 73V36.7H132.892V32.5H152.042V36.7H145.392V73H139.742ZM156.246 73V32.5H161.796V73H156.246ZM168.348 73V32.5H173.998V51.6L183.298 32.5H188.548L180.548 50.35L189.848 73H184.348L176.598 54L173.998 58.7V73H168.348Z" fill="#F04242"/>
</svg>
